<svg width="3001" height="79" viewBox="0 0 3001 79" fill="none" xmlns="http://www.w3.org/2000/svg">
    <path d="M6.20986 19.6065H14.5299V34.1985L56.1299 19.6065V27.8625L15.4899 42.1345L56.3219 56.1505V64.4065L14.5299 49.8145V64.4065H6.20986V19.6065ZM80.3364 27.2225H58.8964V19.6065H110.096V27.2225H88.6564V64.4065H80.3364V27.2225ZM146.628 65.3665C140.271 65.3665 134.404 64.3212 129.028 62.2305C123.695 60.0972 119.449 57.2385 116.292 53.6545C113.177 50.0705 111.62 46.2092 111.62 42.0705C111.62 37.8892 113.177 34.0065 116.292 30.4225C119.449 26.8385 123.695 24.0012 129.028 21.9105C134.404 19.7772 140.271 18.7105 146.628 18.7105C152.985 18.7105 158.831 19.7772 164.164 21.9105C169.54 24.0012 173.785 26.8385 176.9 30.4225C180.057 34.0065 181.636 37.8892 181.636 42.0705C181.636 46.2092 180.057 50.0705 176.9 53.6545C173.785 57.2385 169.54 60.0972 164.164 62.2305C158.831 64.3212 152.985 65.3665 146.628 65.3665ZM119.748 42.0705C119.748 45.3559 120.964 48.1292 123.396 50.3905C125.828 52.6519 129.071 54.3585 133.124 55.5105C137.177 56.6199 141.679 57.1745 146.628 57.1745C151.577 57.1745 156.079 56.6199 160.132 55.5105C164.185 54.3585 167.428 52.6519 169.86 50.3905C172.292 48.1292 173.508 45.3559 173.508 42.0705C173.508 38.7852 172.292 36.0119 169.86 33.7505C167.428 31.4465 164.185 29.7399 160.132 28.6305C156.079 27.4785 151.577 26.9025 146.628 26.9025C141.679 26.9025 137.177 27.4785 133.124 28.6305C129.071 29.7399 125.828 31.4465 123.396 33.7505C120.964 36.0119 119.748 38.7852 119.748 42.0705ZM225.086 27.2225H203.646V19.6065H254.846V27.2225H233.406V64.4065H225.086V27.2225ZM275.314 19.6065H289.074L308.466 64.4065H299.954L295.602 54.2945H268.786L264.434 64.4065H255.922L275.314 19.6065ZM292.082 46.1665L282.226 23.3825L272.306 46.1665H292.082ZM314.96 19.6065H323.28V34.1985L364.88 19.6065V27.8625L324.24 42.1345L365.072 56.1505V64.4065L323.28 49.8145V64.4065H314.96V19.6065ZM404.19 65.3665C397.833 65.3665 391.966 64.3212 386.59 62.2305C381.257 60.0972 377.012 57.2385 373.854 53.6545C370.74 50.0705 369.182 46.2092 369.182 42.0705C369.182 37.8892 370.74 34.0065 373.854 30.4225C377.012 26.8385 381.257 24.0012 386.59 21.9105C391.966 19.7772 397.833 18.7105 404.19 18.7105C410.548 18.7105 416.393 19.7772 421.726 21.9105C427.102 24.0012 431.348 26.8385 434.462 30.4225C437.62 34.0065 439.198 37.8892 439.198 42.0705C439.198 46.2092 437.62 50.0705 434.462 53.6545C431.348 57.2385 427.102 60.0972 421.726 62.2305C416.393 64.3212 410.548 65.3665 404.19 65.3665ZM377.31 42.0705C377.31 45.3559 378.526 48.1292 380.958 50.3905C383.39 52.6519 386.633 54.3585 390.686 55.5105C394.74 56.6199 399.241 57.1745 404.19 57.1745C409.14 57.1745 413.641 56.6199 417.694 55.5105C421.748 54.3585 424.99 52.6519 427.422 50.3905C429.854 48.1292 431.07 45.3559 431.07 42.0705C431.07 38.7852 429.854 36.0119 427.422 33.7505C424.99 31.4465 421.748 29.7399 417.694 28.6305C413.641 27.4785 409.14 26.9025 404.19 26.9025C399.241 26.9025 394.74 27.4785 390.686 28.6305C386.633 29.7399 383.39 31.4465 380.958 33.7505C378.526 36.0119 377.31 38.7852 377.31 42.0705ZM485.957 64.4065V24.5345L457.925 64.4065H443.717V19.6065H452.037V59.6065L480.133 19.6065H494.277V64.4065H485.957ZM468.997 12.3745C464.944 12.3745 461.658 11.3719 459.141 9.36652C456.624 7.36119 455.109 4.63052 454.597 1.17452H462.469C462.896 3.26519 463.664 4.84385 464.773 5.91052C465.882 6.97719 467.29 7.51052 468.997 7.51052C470.704 7.51052 472.112 6.97719 473.221 5.91052C474.373 4.84385 475.162 3.26519 475.589 1.17452H483.397C482.928 4.63052 481.434 7.36119 478.917 9.36652C476.4 11.3719 473.093 12.3745 468.997 12.3745ZM563.144 64.4065V24.5345L535.112 64.4065H520.904V19.6065H529.224V59.6065L557.32 19.6065H571.464V64.4065H563.144ZM641.356 47.8305C639.095 49.2385 636.428 50.3692 633.356 51.2225C630.284 52.0759 627.084 52.5025 623.756 52.5025C620.044 52.5025 616.503 51.9905 613.132 50.9665C609.761 49.9425 606.945 48.5772 604.684 46.8705C602.337 44.9505 600.609 43.1159 599.5 41.3665C598.433 39.5745 597.9 37.7399 597.9 35.8625V19.6065H606.22V34.9665C606.604 38.1239 608.439 40.5772 611.724 42.3265C615.009 44.0332 619.02 44.8865 623.756 44.8865C628.833 44.8865 633.036 44.0545 636.364 42.3905C639.692 40.7265 641.356 38.2519 641.356 34.9665V19.6065H649.74V64.4065H641.356V47.8305ZM658.858 19.6065H704.746V27.7985H667.178V38.1665H698.538V46.3585H667.178V56.2145H704.746V64.4065H658.858V19.6065ZM712.305 19.6065H726.129L741.041 57.8145L755.889 19.6065H769.713V64.4065H761.393V27.7985L747.121 64.4065H734.897L720.625 27.6705V64.4065H712.305V19.6065ZM821.595 65.4305C817.115 65.4305 812.912 64.7265 808.987 63.3185C805.104 61.9105 802.011 60.0545 799.707 57.7505C797.446 55.4465 796.336 53.0785 796.379 50.6465H804.699C804.699 53.0359 806.427 54.8279 809.883 56.0225C813.382 57.2172 817.286 57.8145 821.595 57.8145C833.414 57.8145 839.323 55.4252 839.323 50.6465C839.323 48.8545 838.534 47.5319 836.955 46.6785C835.419 45.8252 833.542 45.3132 831.323 45.1425C829.147 44.9292 826.203 44.8012 822.491 44.7585H821.083L810.459 44.6945V37.1425H821.083C826.672 37.1425 830.982 36.8439 834.011 36.2465C837.083 35.6492 838.619 34.3692 838.619 32.4065C838.619 30.2732 836.934 28.7159 833.563 27.7345C830.192 26.7105 826.203 26.1985 821.595 26.1985C817.03 26.1985 813.062 26.6679 809.691 27.6065C806.363 28.5452 804.699 30.1452 804.699 32.4065H796.379C796.336 30.1452 797.446 27.9479 799.707 25.8145C802.011 23.6812 805.104 21.9532 808.987 20.6305C812.912 19.2652 817.115 18.5825 821.595 18.5825C826.331 18.5825 830.619 19.2652 834.459 20.6305C838.342 21.9532 841.392 23.6812 843.611 25.8145C845.83 27.9479 846.939 30.1452 846.939 32.4065C846.939 34.4119 846.598 36.0545 845.915 37.3345C845.275 38.6145 843.824 39.7665 841.563 40.7905C844.038 41.8572 845.659 43.1372 846.427 44.6305C847.238 46.1239 847.643 48.1292 847.643 50.6465C847.643 53.4199 846.555 55.9372 844.379 58.1985C842.203 60.4172 839.131 62.1879 835.163 63.5105C831.238 64.7905 826.715 65.4305 821.595 65.4305ZM871.126 19.6065H884.886L904.278 64.4065H895.766L891.414 54.2945H864.598L860.246 64.4065H851.734L871.126 19.6065ZM887.894 46.1665L878.038 23.3825L868.118 46.1665H887.894ZM909.812 19.6065H918.132V37.9105H952.82V19.6065H961.14V64.4065H952.82V46.1025H918.132V64.4065H909.812V19.6065ZM1010.83 64.4065V24.5345L982.8 64.4065H968.592V19.6065H976.912V59.6065L1005.01 19.6065H1019.15V64.4065H1010.83ZM1026.37 19.6065H1040.19L1055.1 57.8145L1069.95 19.6065H1083.78V64.4065H1075.46V27.7985L1061.18 64.4065H1048.96L1034.69 27.6705V64.4065H1026.37V19.6065ZM1108.5 19.6065H1122.26L1141.65 64.4065H1133.14L1128.79 54.2945H1101.97L1097.62 64.4065H1089.11L1108.5 19.6065ZM1125.27 46.1665L1115.41 23.3825L1105.49 46.1665H1125.27ZM1146.48 19.6065H1192.37V27.7985H1154.8V38.1665H1186.16V46.3585H1154.8V56.2145H1192.37V64.4065H1146.48V19.6065ZM1217.27 27.2225H1195.83V19.6065H1247.03V27.2225H1225.59V64.4065H1217.27V27.2225ZM1283.5 65.3025C1277.19 65.3025 1271.41 64.2572 1266.16 62.1665C1260.95 60.0332 1256.83 57.1959 1253.81 53.6545C1250.82 50.0705 1249.33 46.1879 1249.33 42.0065C1249.33 37.8252 1250.82 33.9425 1253.81 30.3585C1256.83 26.7745 1260.95 23.9372 1266.16 21.8465C1271.41 19.7132 1277.19 18.6465 1283.5 18.6465C1289.26 18.6465 1294.59 19.5639 1299.5 21.3985C1304.45 23.1905 1308.5 25.6225 1311.66 28.6945C1314.86 31.7665 1316.82 35.1372 1317.55 38.8065H1309.36C1308.21 34.7959 1305.18 31.8092 1300.27 29.8465C1295.41 27.8412 1289.82 26.8385 1283.5 26.8385C1279.11 26.8385 1274.93 27.4145 1270.96 28.5665C1266.99 29.7185 1263.75 31.4465 1261.23 33.7505C1258.75 36.0119 1257.52 38.7639 1257.52 42.0065C1257.52 45.2492 1258.75 48.0012 1261.23 50.2625C1263.75 52.5239 1266.99 54.2305 1270.96 55.3825C1274.93 56.5345 1279.11 57.1105 1283.5 57.1105C1289.82 57.1105 1295.41 56.1292 1300.27 54.1665C1305.13 52.2039 1308.16 49.2385 1309.36 45.2705H1317.55C1316.82 48.9399 1314.86 52.3105 1311.66 55.3825C1308.5 58.4119 1304.45 60.8225 1299.5 62.6145C1294.59 64.4065 1289.26 65.3025 1283.5 65.3025ZM1332.38 64.4065H1324.25V50.2625C1324.25 48.6839 1324.61 47.1479 1325.34 45.6545C1326.06 44.1185 1327.07 42.7319 1328.35 41.4945C1327.07 40.2572 1326.06 38.8492 1325.34 37.2705C1324.61 35.6919 1324.25 34.0705 1324.25 32.4065C1324.25 30.2305 1324.87 28.1612 1326.11 26.1985C1327.34 24.1932 1329.03 22.5932 1331.16 21.3985C1333.34 20.1612 1335.71 19.5425 1338.27 19.5425H1375.19V64.3425H1366.87V45.4625H1337.82C1334.19 45.7612 1332.38 47.3612 1332.38 50.2625V64.4065ZM1332.44 32.4065C1332.44 33.9852 1333 35.2012 1334.11 36.0545C1335.26 36.8652 1336.64 37.2705 1338.27 37.2705H1366.87V27.7345H1338.27C1336.6 27.7345 1335.22 28.1185 1334.11 28.8865C1333 29.6545 1332.44 30.8279 1332.44 32.4065Z"
          fill="white"/>
    <path d="M1413 16.6727C1413 11.1499 1417.48 6.67273 1423 6.67273L1475 6.67273C1480.52 6.67273 1485 11.1499 1485 16.6727V35.7455V52.0545L1455.92 79H1423C1417.48 79 1413 74.5228 1413 69V16.6727Z"
          fill="#FFD31B"/>
    <path d="M1455.92 79V62.0546C1455.92 56.5317 1460.4 52.0546 1465.92 52.0546H1485L1455.92 79Z" fill="black"/>
    <ellipse cx="1449.69" cy="7.38182" rx="6.23077" ry="6.38182" fill="white"/>
    <path d="M1435 39.5H1464" stroke="black" stroke-width="3"/>
    <path d="M1449.5 54L1449.5 25" stroke="black" stroke-width="3"/>
    <path d="M2929 16.6727C2929 11.1499 2933.48 6.67273 2939 6.67273L2991 6.67273C2996.52 6.67273 3001 11.1499 3001 16.6727V35.7455V52.0545L2971.92 79H2939C2933.48 79 2929 74.5228 2929 69V16.6727Z"
          fill="#FFD31B"/>
    <path d="M2971.92 79V62.0546C2971.92 56.5317 2976.4 52.0546 2981.92 52.0546H3001L2971.92 79Z" fill="black"/>
    <ellipse cx="2965.69" cy="7.38182" rx="6.23077" ry="6.38182" fill="white"/>
    <path d="M2951 39.5H2980" stroke="black" stroke-width="3"/>
    <path d="M2965.5 54L2965.5 25" stroke="black" stroke-width="3"/>
    <path d="M1522.38 19.2H1530.7V33.792L1572.3 19.2V27.456L1531.66 41.728L1572.49 55.744V64L1530.7 49.408V64H1522.38V19.2ZM1596.5 26.816H1575.06V19.2H1626.26V26.816H1604.82V64H1596.5V26.816ZM1662.79 64.96C1656.44 64.96 1650.57 63.9147 1645.19 61.824C1639.86 59.6907 1635.62 56.832 1632.46 53.248C1629.34 49.664 1627.79 45.8027 1627.79 41.664C1627.79 37.4827 1629.34 33.6 1632.46 30.016C1635.62 26.432 1639.86 23.5947 1645.19 21.504C1650.57 19.3707 1656.44 18.304 1662.79 18.304C1669.15 18.304 1675 19.3707 1680.33 21.504C1685.71 23.5947 1689.95 26.432 1693.07 30.016C1696.22 33.6 1697.8 37.4827 1697.8 41.664C1697.8 45.8027 1696.22 49.664 1693.07 53.248C1689.95 56.832 1685.71 59.6907 1680.33 61.824C1675 63.9147 1669.15 64.96 1662.79 64.96ZM1635.91 41.664C1635.91 44.9493 1637.13 47.7227 1639.56 49.984C1641.99 52.2453 1645.24 53.952 1649.29 55.104C1653.34 56.2133 1657.84 56.768 1662.79 56.768C1667.74 56.768 1672.24 56.2133 1676.3 55.104C1680.35 53.952 1683.59 52.2453 1686.03 49.984C1688.46 47.7227 1689.67 44.9493 1689.67 41.664C1689.67 38.3787 1688.46 35.6053 1686.03 33.344C1683.59 31.04 1680.35 29.3333 1676.3 28.224C1672.24 27.072 1667.74 26.496 1662.79 26.496C1657.84 26.496 1653.34 27.072 1649.29 28.224C1645.24 29.3333 1641.99 31.04 1639.56 33.344C1637.13 35.6053 1635.91 38.3787 1635.91 41.664ZM1741.25 26.816H1719.81V19.2H1771.01V26.816H1749.57V64H1741.25V26.816ZM1791.48 19.2H1805.24L1824.63 64H1816.12L1811.77 53.888H1784.95L1780.6 64H1772.09L1791.48 19.2ZM1808.25 45.76L1798.39 22.976L1788.47 45.76H1808.25ZM1831.13 19.2H1839.45V33.792L1881.05 19.2V27.456L1840.41 41.728L1881.24 55.744V64L1839.45 49.408V64H1831.13V19.2ZM1920.36 64.96C1914 64.96 1908.13 63.9147 1902.76 61.824C1897.42 59.6907 1893.18 56.832 1890.02 53.248C1886.91 49.664 1885.35 45.8027 1885.35 41.664C1885.35 37.4827 1886.91 33.6 1890.02 30.016C1893.18 26.432 1897.42 23.5947 1902.76 21.504C1908.13 19.3707 1914 18.304 1920.36 18.304C1926.71 18.304 1932.56 19.3707 1937.89 21.504C1943.27 23.5947 1947.51 26.432 1950.63 30.016C1953.79 33.6 1955.36 37.4827 1955.36 41.664C1955.36 45.8027 1953.79 49.664 1950.63 53.248C1947.51 56.832 1943.27 59.6907 1937.89 61.824C1932.56 63.9147 1926.71 64.96 1920.36 64.96ZM1893.48 41.664C1893.48 44.9493 1894.69 47.7227 1897.12 49.984C1899.56 52.2453 1902.8 53.952 1906.85 55.104C1910.91 56.2133 1915.41 56.768 1920.36 56.768C1925.31 56.768 1929.81 56.2133 1933.86 55.104C1937.91 53.952 1941.16 52.2453 1943.59 49.984C1946.02 47.7227 1947.24 44.9493 1947.24 41.664C1947.24 38.3787 1946.02 35.6053 1943.59 33.344C1941.16 31.04 1937.91 29.3333 1933.86 28.224C1929.81 27.072 1925.31 26.496 1920.36 26.496C1915.41 26.496 1910.91 27.072 1906.85 28.224C1902.8 29.3333 1899.56 31.04 1897.12 33.344C1894.69 35.6053 1893.48 38.3787 1893.48 41.664ZM2002.12 64V24.128L1974.09 64H1959.88V19.2H1968.2V59.2L1996.3 19.2H2010.44V64H2002.12ZM1985.16 11.968C1981.11 11.968 1977.82 10.9653 1975.31 8.96C1972.79 6.95466 1971.28 4.224 1970.76 0.767998H1978.64C1979.06 2.85866 1979.83 4.43733 1980.94 5.504C1982.05 6.57066 1983.46 7.104 1985.16 7.104C1986.87 7.104 1988.28 6.57066 1989.39 5.504C1990.54 4.43733 1991.33 2.85866 1991.76 0.767998H1999.56C1999.09 4.224 1997.6 6.95466 1995.08 8.96C1992.57 10.9653 1989.26 11.968 1985.16 11.968ZM2079.31 64V24.128L2051.28 64H2037.07V19.2H2045.39V59.2L2073.49 19.2H2087.63V64H2079.31ZM2157.52 47.424C2155.26 48.832 2152.59 49.9627 2149.52 50.816C2146.45 51.6693 2143.25 52.096 2139.92 52.096C2136.21 52.096 2132.67 51.584 2129.3 50.56C2125.93 49.536 2123.11 48.1707 2120.85 46.464C2118.5 44.544 2116.78 42.7093 2115.67 40.96C2114.6 39.168 2114.07 37.3333 2114.07 35.456V19.2H2122.39V34.56C2122.77 37.7173 2124.6 40.1707 2127.89 41.92C2131.18 43.6267 2135.19 44.48 2139.92 44.48C2145 44.48 2149.2 43.648 2152.53 41.984C2155.86 40.32 2157.52 37.8453 2157.52 34.56V19.2H2165.91V64H2157.52V47.424ZM2175.02 19.2H2220.91V27.392H2183.34V37.76H2214.7V45.952H2183.34V55.808H2220.91V64H2175.02V19.2ZM2228.47 19.2H2242.3L2257.21 57.408L2272.06 19.2H2285.88V64H2277.56V27.392L2263.29 64H2251.06L2236.79 27.264V64H2228.47V19.2ZM2337.76 65.024C2333.28 65.024 2329.08 64.32 2325.15 62.912C2321.27 61.504 2318.18 59.648 2315.87 57.344C2313.61 55.04 2312.5 52.672 2312.55 50.24H2320.87C2320.87 52.6293 2322.59 54.4213 2326.05 55.616C2329.55 56.8107 2333.45 57.408 2337.76 57.408C2349.58 57.408 2355.49 55.0187 2355.49 50.24C2355.49 48.448 2354.7 47.1253 2353.12 46.272C2351.59 45.4187 2349.71 44.9067 2347.49 44.736C2345.31 44.5227 2342.37 44.3947 2338.66 44.352H2337.25L2326.62 44.288V36.736H2337.25C2342.84 36.736 2347.15 36.4373 2350.18 35.84C2353.25 35.2427 2354.79 33.9627 2354.79 32C2354.79 29.8667 2353.1 28.3093 2349.73 27.328C2346.36 26.304 2342.37 25.792 2337.76 25.792C2333.2 25.792 2329.23 26.2613 2325.86 27.2C2322.53 28.1387 2320.87 29.7387 2320.87 32H2312.55C2312.5 29.7387 2313.61 27.5413 2315.87 25.408C2318.18 23.2747 2321.27 21.5467 2325.15 20.224C2329.08 18.8587 2333.28 18.176 2337.76 18.176C2342.5 18.176 2346.79 18.8587 2350.62 20.224C2354.51 21.5467 2357.56 23.2747 2359.78 25.408C2362 27.5413 2363.11 29.7387 2363.11 32C2363.11 34.0053 2362.76 35.648 2362.08 36.928C2361.44 38.208 2359.99 39.36 2357.73 40.384C2360.2 41.4507 2361.83 42.7307 2362.59 44.224C2363.4 45.7173 2363.81 47.7227 2363.81 50.24C2363.81 53.0133 2362.72 55.5307 2360.55 57.792C2358.37 60.0107 2355.3 61.7813 2351.33 63.104C2347.4 64.384 2342.88 65.024 2337.76 65.024ZM2387.29 19.2H2401.05L2420.44 64H2411.93L2407.58 53.888H2380.76L2376.41 64H2367.9L2387.29 19.2ZM2404.06 45.76L2394.2 22.976L2384.28 45.76H2404.06ZM2425.98 19.2H2434.3V37.504H2468.99V19.2H2477.31V64H2468.99V45.696H2434.3V64H2425.98V19.2ZM2527 64V24.128L2498.97 64H2484.76V19.2H2493.08V59.2L2521.17 19.2H2535.32V64H2527ZM2542.53 19.2H2556.36L2571.27 57.408L2586.12 19.2H2599.94V64H2591.62V27.392L2577.35 64H2565.13L2550.85 27.264V64H2542.53V19.2ZM2624.67 19.2H2638.43L2657.82 64H2649.31L2644.96 53.888H2618.14L2613.79 64H2605.28L2624.67 19.2ZM2641.44 45.76L2631.58 22.976L2621.66 45.76H2641.44ZM2662.65 19.2H2708.54V27.392H2670.97V37.76H2702.33V45.952H2670.97V55.808H2708.54V64H2662.65V19.2ZM2733.44 26.816H2712V19.2H2763.2V26.816H2741.76V64H2733.44V26.816ZM2799.67 64.896C2793.35 64.896 2787.57 63.8507 2782.32 61.76C2777.12 59.6267 2773 56.7893 2769.97 53.248C2766.98 49.664 2765.49 45.7813 2765.49 41.6C2765.49 37.4187 2766.98 33.536 2769.97 29.952C2773 26.368 2777.12 23.5307 2782.32 21.44C2787.57 19.3067 2793.35 18.24 2799.67 18.24C2805.43 18.24 2810.76 19.1573 2815.67 20.992C2820.62 22.784 2824.67 25.216 2827.83 28.288C2831.03 31.36 2832.99 34.7307 2833.72 38.4H2825.52C2824.37 34.3893 2821.34 31.4027 2816.44 29.44C2811.57 27.4347 2805.98 26.432 2799.67 26.432C2795.27 26.432 2791.09 27.008 2787.12 28.16C2783.16 29.312 2779.91 31.04 2777.4 33.344C2774.92 35.6053 2773.68 38.3573 2773.68 41.6C2773.68 44.8427 2774.92 47.5947 2777.4 49.856C2779.91 52.1173 2783.16 53.824 2787.12 54.976C2791.09 56.128 2795.27 56.704 2799.67 56.704C2805.98 56.704 2811.57 55.7227 2816.44 53.76C2821.3 51.7973 2824.33 48.832 2825.52 44.864H2833.72C2832.99 48.5333 2831.03 51.904 2827.83 54.976C2824.67 58.0053 2820.62 60.416 2815.67 62.208C2810.76 64 2805.43 64.896 2799.67 64.896ZM2848.54 64H2840.42V49.856C2840.42 48.2773 2840.78 46.7413 2841.5 45.248C2842.23 43.712 2843.23 42.3253 2844.51 41.088C2843.23 39.8507 2842.23 38.4427 2841.5 36.864C2840.78 35.2853 2840.42 33.664 2840.42 32C2840.42 29.824 2841.03 27.7547 2842.27 25.792C2843.51 23.7867 2845.19 22.1867 2847.33 20.992C2849.5 19.7547 2851.87 19.136 2854.43 19.136H2891.36V63.936H2883.04V45.056H2853.98C2850.36 45.3547 2848.54 46.9547 2848.54 49.856V64ZM2848.61 32C2848.61 33.5787 2849.16 34.7947 2850.27 35.648C2851.42 36.4587 2852.81 36.864 2854.43 36.864H2883.04V27.328H2854.43C2852.77 27.328 2851.38 27.712 2850.27 28.48C2849.16 29.248 2848.61 30.4213 2848.61 32Z"
          fill="white"/>
</svg>
