<svg width="2203" height="79" viewBox="0 0 2203 79" fill="none" xmlns="http://www.w3.org/2000/svg">
    <path d="M1.58655 55.774L7.98655 55.774C9.65055 49.246 10.4826 42.6967 10.4826 36.126C10.4826 29.7687 9.67189 23.902 8.05055 18.526L53.5546 18.526L53.5546 55.774L59.7626 55.774L59.7626 76.19L51.6986 76.19L51.6986 63.39L9.58655 63.39L9.65055 76.19L1.58655 76.19L1.58655 55.774ZM45.4906 55.774L45.4906 26.142L18.2266 26.142C18.5679 29.6407 18.7386 32.9473 18.7386 36.062C18.7386 43.1873 17.8852 49.758 16.1786 55.774L45.4906 55.774ZM65.0901 18.59L110.978 18.59L110.978 26.782L73.4101 26.782L73.4101 37.15L104.77 37.15L104.77 45.342L73.4101 45.342L73.4101 55.198L110.978 55.198L110.978 63.39L65.0901 63.39L65.0901 18.59ZM164.809 26.142L135.433 26.142L135.433 28.574C135.433 34.6327 135.155 40.158 134.601 45.15C134.089 50.142 132.809 54.558 130.761 58.398C128.713 62.238 125.641 64.158 121.545 64.158C119.667 64.158 117.534 63.6887 115.145 62.75L115.145 55.774C116.766 56.8833 118.238 57.438 119.561 57.438C122.718 57.438 124.809 54.7073 125.833 49.246C126.857 43.7847 127.369 36.7233 127.369 28.062L127.305 18.526L172.873 18.526L172.873 63.326L164.809 63.326L164.809 26.142ZM223.501 63.39L223.501 23.518L195.469 63.39L181.261 63.39L181.261 18.59L189.581 18.59L189.581 58.59L217.677 18.59L231.821 18.59L231.821 63.39L223.501 63.39ZM238.653 63.39L238.653 18.59L273.981 18.59C276.413 18.59 278.653 19.1447 280.701 20.254C282.791 21.3633 284.434 22.878 285.629 24.798C286.866 26.6753 287.485 28.7447 287.485 31.006C287.485 33.9073 286.61 36.4247 284.861 38.558C286.439 39.9233 287.677 41.5873 288.573 43.55C289.511 45.5127 289.981 47.6033 289.981 49.822C289.981 52.4247 289.362 54.7713 288.125 56.862C286.93 58.91 285.287 60.5313 283.197 61.726C281.149 62.878 278.909 63.454 276.477 63.454L238.653 63.39ZM275.197 55.326C276.903 55.326 278.439 54.75 279.805 53.598C281.17 52.4033 281.853 50.8887 281.853 49.054C281.853 47.3047 281.17 45.9393 279.805 44.958C278.482 43.9767 276.946 43.486 275.197 43.486L246.845 43.486L246.845 55.326L275.197 55.326ZM273.981 35.358C275.602 35.358 276.882 34.974 277.821 34.206C278.802 33.3953 279.293 32.3287 279.293 31.006C279.293 29.6833 278.802 28.638 277.821 27.87C276.882 27.102 275.602 26.718 273.981 26.718L246.845 26.718L246.845 35.358L273.981 35.358ZM296.278 18.59L342.166 18.59L342.166 26.782L304.598 26.782L304.598 37.15L335.958 37.15L335.958 45.342L304.598 45.342L304.598 55.198L342.166 55.198L342.166 63.39L296.278 63.39L296.278 18.59ZM351.004 18.526L387.932 18.526C390.492 18.526 392.839 19.1447 394.972 20.382C397.148 21.5767 398.855 23.1767 400.092 25.182C401.329 27.1447 401.948 29.214 401.948 31.39C401.948 33.6087 401.329 35.7207 400.092 37.726C398.855 39.7313 397.148 41.3527 394.972 42.59C392.839 43.8273 390.492 44.446 387.932 44.446L359.324 44.446L359.324 63.326L351.004 63.326L351.004 18.526ZM387.932 36.254C389.553 36.254 390.919 35.8487 392.028 35.038C393.18 34.1847 393.756 32.9687 393.756 31.39C393.756 29.8113 393.201 28.638 392.092 27.87C390.983 27.102 389.596 26.718 387.932 26.718L359.324 26.718L359.324 36.254L387.932 36.254ZM448.751 63.39L448.751 23.518L420.719 63.39L406.511 63.39L406.511 18.59L414.831 18.59L414.831 58.59L442.927 18.59L457.071 18.59L457.071 63.39L448.751 63.39ZM484.787 18.59L498.611 18.59L513.523 56.798L528.371 18.59L542.195 18.59L542.195 63.39L533.875 63.39L533.875 26.782L519.603 63.39L507.379 63.39L493.107 26.654L493.107 63.39L484.787 63.39L484.787 18.59ZM550.153 18.59L596.041 18.59L596.041 26.782L558.473 26.782L558.473 37.15L589.833 37.15L589.833 45.342L558.473 45.342L558.473 55.198L596.041 55.198L596.041 63.39L550.153 63.39L550.153 18.59ZM603.919 18.59L612.239 18.59L612.239 36.894L646.927 36.894L646.927 18.59L655.247 18.59L655.247 63.39L646.927 63.39L646.927 45.086L612.239 45.086L612.239 63.39L603.919 63.39L603.919 18.59ZM663.403 18.59L709.291 18.59L709.291 26.782L671.723 26.782L671.723 37.15L703.083 37.15L703.083 45.342L671.723 45.342L671.723 55.198L709.291 55.198L709.291 63.39L663.403 63.39L663.403 18.59ZM713.649 55.774L720.049 55.774C721.713 49.246 722.545 42.6967 722.545 36.126C722.545 29.7687 721.734 23.902 720.113 18.526L765.617 18.526L765.617 55.774L771.825 55.774L771.825 76.19L763.761 76.19L763.761 63.39L721.649 63.39L721.713 76.19L713.649 76.19L713.649 55.774ZM757.553 55.774L757.553 26.142L730.289 26.142C730.63 29.6407 730.801 32.9473 730.801 36.062C730.801 43.1873 729.948 49.758 728.241 55.774L757.553 55.774ZM817.793 48.798L776.001 63.39L776.001 55.134L816.833 41.118L776.193 26.846L776.193 18.59L817.793 33.182L817.793 18.59L826.177 18.59L826.177 33.182L867.777 18.59L867.777 26.846L827.137 41.118L867.969 55.134L867.969 63.39L826.177 48.798L826.177 63.39L817.793 63.39L817.793 48.798ZM874.215 18.59L920.103 18.59L920.103 26.782L882.535 26.782L882.535 37.15L913.895 37.15L913.895 45.342L882.535 45.342L882.535 55.198L920.103 55.198L920.103 63.39L874.215 63.39L874.215 18.59ZM928.942 18.526L965.87 18.526C968.43 18.526 970.776 19.1447 972.91 20.382C975.086 21.5767 976.792 23.1767 978.03 25.182C979.267 27.1447 979.886 29.214 979.886 31.39C979.886 33.6087 979.267 35.7207 978.03 37.726C976.792 39.7313 975.086 41.3527 972.91 42.59C970.776 43.8273 968.43 44.446 965.87 44.446L937.262 44.446L937.262 63.326L928.942 63.326L928.942 18.526ZM965.87 36.254C967.491 36.254 968.856 35.8487 969.966 35.038C971.118 34.1847 971.694 32.9687 971.694 31.39C971.694 29.8113 971.139 28.638 970.03 27.87C968.92 27.102 967.534 26.718 965.87 26.718L937.262 26.718L937.262 36.254L965.87 36.254Z" fill="white"/>
    <path d="M1013.69 16.0627C1013.69 10.5399 1018.17 6.06274 1023.69 6.06274L1075.69 6.06274C1081.21 6.06274 1085.69 10.5399 1085.69 16.0627L1085.69 35.1355L1085.69 51.4446L1056.61 78.39L1023.69 78.39C1018.17 78.39 1013.69 73.9129 1013.69 68.39L1013.69 16.0627Z" fill="#FFD31B"/>
    <path d="M1056.61 78.39L1056.61 61.4446C1056.61 55.9217 1061.09 51.4446 1066.61 51.4446L1085.69 51.4446L1056.61 78.39Z" fill="#5E73E1"/>
    <ellipse cx="1050.38" cy="6.77183" rx="6.23077" ry="6.38182" fill="white"/>
    <path d="M1032.03 35.4828L1048.09 50.9261L1068.46 26.6581" stroke="black" stroke-width="3"/>
    <path d="M1118.59 55.774L1124.99 55.774C1126.65 49.246 1127.48 42.6967 1127.48 36.126C1127.48 29.7687 1126.67 23.902 1125.05 18.526L1170.55 18.526L1170.55 55.774L1176.76 55.774L1176.76 76.19L1168.7 76.19L1168.7 63.39L1126.59 63.39L1126.65 76.19L1118.59 76.19L1118.59 55.774ZM1162.49 55.774L1162.49 26.142L1135.23 26.142C1135.57 29.6407 1135.74 32.9473 1135.74 36.062C1135.74 43.1873 1134.89 49.758 1133.18 55.774L1162.49 55.774ZM1182.09 18.59L1227.98 18.59L1227.98 26.782L1190.41 26.782L1190.41 37.15L1221.77 37.15L1221.77 45.342L1190.41 45.342L1190.41 55.198L1227.98 55.198L1227.98 63.39L1182.09 63.39L1182.09 18.59ZM1281.81 26.142L1252.43 26.142L1252.43 28.574C1252.43 34.6327 1252.16 40.158 1251.6 45.15C1251.09 50.142 1249.81 54.558 1247.76 58.398C1245.71 62.238 1242.64 64.158 1238.54 64.158C1236.67 64.158 1234.53 63.6887 1232.14 62.75L1232.14 55.774C1233.77 56.8833 1235.24 57.438 1236.56 57.438C1239.72 57.438 1241.81 54.7073 1242.83 49.246C1243.86 43.7847 1244.37 36.7233 1244.37 28.062L1244.3 18.526L1289.87 18.526L1289.87 63.326L1281.81 63.326L1281.81 26.142ZM1340.5 63.39L1340.5 23.518L1312.47 63.39L1298.26 63.39L1298.26 18.59L1306.58 18.59L1306.58 58.59L1334.68 18.59L1348.82 18.59L1348.82 63.39L1340.5 63.39ZM1355.65 63.39L1355.65 18.59L1390.98 18.59C1393.41 18.59 1395.65 19.1447 1397.7 20.254C1399.79 21.3633 1401.43 22.878 1402.63 24.798C1403.87 26.6753 1404.48 28.7447 1404.48 31.006C1404.48 33.9073 1403.61 36.4247 1401.86 38.558C1403.44 39.9233 1404.68 41.5873 1405.57 43.55C1406.51 45.5127 1406.98 47.6033 1406.98 49.822C1406.98 52.4247 1406.36 54.7713 1405.12 56.862C1403.93 58.91 1402.29 60.5313 1400.2 61.726C1398.15 62.878 1395.91 63.454 1393.48 63.454L1355.65 63.39ZM1392.2 55.326C1393.9 55.326 1395.44 54.75 1396.8 53.598C1398.17 52.4033 1398.85 50.8887 1398.85 49.054C1398.85 47.3047 1398.17 45.9393 1396.8 44.958C1395.48 43.9767 1393.95 43.486 1392.2 43.486L1363.84 43.486L1363.84 55.326L1392.2 55.326ZM1390.98 35.358C1392.6 35.358 1393.88 34.974 1394.82 34.206C1395.8 33.3953 1396.29 32.3287 1396.29 31.006C1396.29 29.6833 1395.8 28.638 1394.82 27.87C1393.88 27.102 1392.6 26.718 1390.98 26.718L1363.84 26.718L1363.84 35.358L1390.98 35.358ZM1413.28 18.59L1459.17 18.59L1459.17 26.782L1421.6 26.782L1421.6 37.15L1452.96 37.15L1452.96 45.342L1421.6 45.342L1421.6 55.198L1459.17 55.198L1459.17 63.39L1413.28 63.39L1413.28 18.59ZM1468 18.526L1504.93 18.526C1507.49 18.526 1509.84 19.1447 1511.97 20.382C1514.15 21.5767 1515.85 23.1767 1517.09 25.182C1518.33 27.1447 1518.95 29.214 1518.95 31.39C1518.95 33.6087 1518.33 35.7207 1517.09 37.726C1515.85 39.7313 1514.15 41.3527 1511.97 42.59C1509.84 43.8273 1507.49 44.446 1504.93 44.446L1476.32 44.446L1476.32 63.326L1468 63.326L1468 18.526ZM1504.93 36.254C1506.55 36.254 1507.92 35.8487 1509.03 35.038C1510.18 34.1847 1510.76 32.9687 1510.76 31.39C1510.76 29.8113 1510.2 28.638 1509.09 27.87C1507.98 27.102 1506.6 26.718 1504.93 26.718L1476.32 26.718L1476.32 36.254L1504.93 36.254ZM1565.75 63.39L1565.75 23.518L1537.72 63.39L1523.51 63.39L1523.51 18.59L1531.83 18.59L1531.83 58.59L1559.93 18.59L1574.07 18.59L1574.07 63.39L1565.75 63.39ZM1601.79 18.59L1615.61 18.59L1630.52 56.798L1645.37 18.59L1659.19 18.59L1659.19 63.39L1650.87 63.39L1650.87 26.782L1636.6 63.39L1624.38 63.39L1610.11 26.654L1610.11 63.39L1601.79 63.39L1601.79 18.59ZM1667.15 18.59L1713.04 18.59L1713.04 26.782L1675.47 26.782L1675.47 37.15L1706.83 37.15L1706.83 45.342L1675.47 45.342L1675.47 55.198L1713.04 55.198L1713.04 63.39L1667.15 63.39L1667.15 18.59ZM1720.92 18.59L1729.24 18.59L1729.24 36.894L1763.93 36.894L1763.93 18.59L1772.25 18.59L1772.25 63.39L1763.93 63.39L1763.93 45.086L1729.24 45.086L1729.24 63.39L1720.92 63.39L1720.92 18.59ZM1780.4 18.59L1826.29 18.59L1826.29 26.782L1788.72 26.782L1788.72 37.15L1820.08 37.15L1820.08 45.342L1788.72 45.342L1788.72 55.198L1826.29 55.198L1826.29 63.39L1780.4 63.39L1780.4 18.59ZM1830.65 55.774L1837.05 55.774C1838.71 49.246 1839.55 42.6967 1839.55 36.126C1839.55 29.7687 1838.73 23.902 1837.11 18.526L1882.62 18.526L1882.62 55.774L1888.83 55.774L1888.83 76.19L1880.76 76.19L1880.76 63.39L1838.65 63.39L1838.71 76.19L1830.65 76.19L1830.65 55.774ZM1874.55 55.774L1874.55 26.142L1847.29 26.142C1847.63 29.6407 1847.8 32.9473 1847.8 36.062C1847.8 43.1873 1846.95 49.758 1845.24 55.774L1874.55 55.774ZM1934.79 48.798L1893 63.39L1893 55.134L1933.83 41.118L1893.19 26.846L1893.19 18.59L1934.79 33.182L1934.79 18.59L1943.18 18.59L1943.18 33.182L1984.78 18.59L1984.78 26.846L1944.14 41.118L1984.97 55.134L1984.97 63.39L1943.18 48.798L1943.18 63.39L1934.79 63.39L1934.79 48.798ZM1991.22 18.59L2037.1 18.59L2037.1 26.782L1999.54 26.782L1999.54 37.15L2030.9 37.15L2030.9 45.342L1999.54 45.342L1999.54 55.198L2037.1 55.198L2037.1 63.39L1991.22 63.39L1991.22 18.59ZM2045.94 18.526L2082.87 18.526C2085.43 18.526 2087.78 19.1447 2089.91 20.382C2092.09 21.5767 2093.79 23.1767 2095.03 25.182C2096.27 27.1447 2096.89 29.214 2096.89 31.39C2096.89 33.6087 2096.27 35.7207 2095.03 37.726C2093.79 39.7313 2092.09 41.3527 2089.91 42.59C2087.78 43.8273 2085.43 44.446 2082.87 44.446L2054.26 44.446L2054.26 63.326L2045.94 63.326L2045.94 18.526ZM2082.87 36.254C2084.49 36.254 2085.86 35.8487 2086.97 35.038C2088.12 34.1847 2088.69 32.9687 2088.69 31.39C2088.69 29.8113 2088.14 28.638 2087.03 27.87C2085.92 27.102 2084.53 26.718 2082.87 26.718L2054.26 26.718L2054.26 36.254L2082.87 36.254Z" fill="white"/>
    <path d="M2130.69 17.1262C2130.69 11.6033 2135.17 7.12616 2140.69 7.12616L2192.08 7.12616C2197.61 7.12616 2202.08 11.6033 2202.08 17.1262L2202.08 35.2713L2202.08 51.06L2173.25 77.1457L2140.69 77.1457C2135.17 77.1457 2130.69 72.6685 2130.69 67.1457L2130.69 17.1262Z" fill="#FFD31B"/>
    <path d="M2173.25 77.1457L2173.25 61.06C2173.25 55.5371 2177.73 51.06 2183.25 51.06L2202.08 51.06L2173.25 77.1457Z" fill="#5E73E1"/>
    <circle cx="2167.07" cy="7.81259" r="6.17819" fill="white"/>
    <path d="M2148.88 35.6075L2164.8 50.558L2185 27.0644" stroke="black" stroke-width="3"/>
</svg>
