<svg width="792" height="88" viewBox="0 0 792 88" fill="none" xmlns="http://www.w3.org/2000/svg">
    <path d="M48.6212 87.7927C42.3012 87.7927 36.2612 87.0327 30.5012 85.5127C24.8212 83.9127 19.7412 81.7127 15.2612 78.9127L14.3012 85.9927H0.261202V1.99267H89.1812V16.2727H15.5012V32.7127C19.9012 29.9127 24.9412 27.7527 30.6212 26.2327C36.3012 24.7127 42.3012 23.9527 48.6212 23.9527C57.3412 23.9527 65.3812 25.4327 72.7412 28.3927C80.1812 31.2727 86.0612 35.1927 90.3812 40.1527C94.7012 45.0327 96.8612 50.3127 96.8612 55.9927C96.8612 61.5927 94.7012 66.8327 90.3812 71.7127C86.0612 76.5927 80.1812 80.5127 72.7412 83.4727C65.3812 86.3527 57.3412 87.7927 48.6212 87.7927ZM15.6212 55.8727C15.6212 58.9927 17.1412 61.9127 20.1812 64.6327C23.2212 67.3527 27.2612 69.5127 32.3012 71.1127C37.4212 72.7127 42.8612 73.5127 48.6212 73.5127C54.3812 73.5127 59.7812 72.7127 64.8212 71.1127C69.9412 69.5127 74.0212 67.3527 77.0612 64.6327C80.1012 61.9127 81.6212 58.9927 81.6212 55.8727C81.6212 52.6727 80.1012 49.7527 77.0612 47.1127C74.0212 44.3927 69.9412 42.2327 64.8212 40.6327C59.7812 39.0327 54.3812 38.2327 48.6212 38.2327C42.7812 38.2327 37.3412 39.0327 32.3012 40.6327C27.2612 42.2327 23.2212 44.3927 20.1812 47.1127C17.1412 49.7527 15.6212 52.6727 15.6212 55.8727ZM195.992 16.1527H140.912V20.7127C140.912 32.0727 140.392 42.4327 139.352 51.7927C138.392 61.1527 135.992 69.4327 132.152 76.6327C128.312 83.8327 122.552 87.4327 114.872 87.4327C111.352 87.4327 107.352 86.5527 102.872 84.7927V71.7127C105.912 73.7927 108.672 74.8327 111.152 74.8327C117.072 74.8327 120.992 69.7127 122.912 59.4727C124.832 49.2327 125.792 35.9927 125.792 19.7527L125.672 1.87267H211.112V85.8727H195.992V16.1527ZM289.72 87.7927C277.8 87.7927 266.8 85.8327 256.72 81.9127C246.72 77.9127 238.76 72.5527 232.84 65.8327C227 59.1127 224.08 51.8727 224.08 44.1127C224.08 36.2727 227 28.9927 232.84 22.2727C238.76 15.5527 246.72 10.2327 256.72 6.31267C266.8 2.31267 277.8 0.31267 289.72 0.31267C301.64 0.31267 312.6 2.31267 322.6 6.31267C332.68 10.2327 340.64 15.5527 346.48 22.2727C352.4 28.9927 355.36 36.2727 355.36 44.1127C355.36 51.8727 352.4 59.1127 346.48 65.8327C340.64 72.5527 332.68 77.9127 322.6 81.9127C312.6 85.8327 301.64 87.7927 289.72 87.7927ZM239.32 44.1127C239.32 50.2727 241.6 55.4727 246.16 59.7127C250.72 63.9527 256.8 67.1527 264.4 69.3127C272 71.3927 280.44 72.4327 289.72 72.4327C299 72.4327 307.44 71.3927 315.04 69.3127C322.64 67.1527 328.72 63.9527 333.28 59.7127C337.84 55.4727 340.12 50.2727 340.12 44.1127C340.12 37.9527 337.84 32.7527 333.28 28.5127C328.72 24.1927 322.64 20.9927 315.04 18.9127C307.44 16.7527 299 15.6727 289.72 15.6727C280.44 15.6727 272 16.7527 264.4 18.9127C256.8 20.9927 250.72 24.1927 246.16 28.5127C241.6 32.7527 239.32 37.9527 239.32 44.1127ZM452.152 1.99267V17.3527H383.872V85.9927H368.272V1.99267H452.152ZM532.689 16.2727H492.489V1.99267H588.489V16.2727H548.289V85.9927H532.689V16.2727ZM605.146 85.8727V71.7127L627.346 71.8327C631.986 71.8327 634.306 69.8727 634.306 65.9527V46.3927L590.386 1.99267H609.826L642.106 34.2727L674.386 1.99267H693.826L649.906 46.3927V68.4727C649.906 71.3527 648.986 74.1527 647.146 76.8727C645.306 79.5127 642.786 81.7127 639.586 83.4727C636.386 85.1527 632.906 85.9927 629.146 85.9927L605.146 85.8727ZM735.892 16.2727H695.692V1.99267H791.692V16.2727H751.492V85.9927H735.892V16.2727Z" fill="#512DE2"/>
</svg>
