<svg viewBox="0 0 544 139" xmlns="http://www.w3.org/2000/svg">
<path d="M0 39.146H6.666C8.382 32.502 9.24 25.704 9.24 18.752C9.24 12.152 8.404 6.14601 6.732 0.734009H57.552V39.146H63.954V60.2H51.678V47H12.21L12.276 60.2H0V39.146ZM45.276 39.146V9.58801H21.12C21.516 13.724 21.714 16.2 21.714 19.016C21.714 26.012 20.79 32.722 18.942 39.146H45.276Z" fill="currentColor"/>
<path d="M70.2776 0.800009H120.702V9.58801H81.9596V19.676H114.102V28.124H81.9596V37.232H120.702V47H70.2776V0.800009Z" fill="currentColor"/>
<path d="M175.201 11.7539H149.207V15.056C149.207 20.864 148.899 26.122 148.283 30.83C147.711 35.538 146.325 39.63 144.125 43.106C141.969 46.538 138.757 48.254 134.489 48.254C131.673 48.254 128.505 47.44 124.985 45.812V34.13C127.097 35.758 128.967 36.572 130.595 36.572C133.411 36.572 135.281 34.306 136.205 29.774C137.129 25.242 137.591 19.082 137.591 11.294L137.525 0.734009H187.883V46.934H175.201V11.7539Z" fill="currentColor"/>
<path d="M241.699 47V9.84201L215.563 47H197.281V0.800009H208.963V28.09L235.165 0.800009H253.381V47H241.699Z" fill="currentColor"/>
<path d="M260.855 47V0.800009H298.871C301.775 0.800009 304.437 1.39401 306.857 2.58201C309.321 3.77001 311.257 5.35401 312.665 7.33401C314.073 9.27001 314.777 11.36 314.777 13.604C314.777 16.464 313.787 19.126 311.807 21.59C313.523 22.998 314.865 24.67 315.833 26.606C316.845 28.542 317.351 30.544 317.351 32.612C317.351 35.34 316.625 37.804 315.173 40.004C313.765 42.204 311.851 43.942 309.431 45.218C307.011 46.45 304.349 47.066 301.445 47.066L260.855 47ZM298.871 37.298C302.963 37.298 305.009 35.736 305.009 32.612C305.009 29.356 302.963 27.728 298.871 27.728H272.537V37.298H298.871ZM298.673 17.96C299.905 17.96 300.829 17.74 301.445 17.3C302.061 16.86 302.369 15.98 302.369 14.66C302.369 12.328 301.137 11.162 298.673 11.162H272.537V17.96H298.673Z" fill="currentColor"/>
<path d="M324.674 0.800009H375.098V10.568H336.356V19.676H368.498V28.124H336.356V37.232H375.098V47H324.674V0.800009Z" fill="currentColor"/>
<path d="M383.54 0.734009H423.602C426.682 0.734009 429.476 1.41601 431.984 2.78001C434.492 4.10001 436.45 5.83801 437.858 7.99401C439.31 10.106 440.036 12.284 440.036 14.528C440.036 16.64 439.31 18.818 437.858 21.062C436.45 23.262 434.492 25.11 431.984 26.606C429.476 28.058 426.682 28.784 423.602 28.784H395.222V46.934H383.54V0.734009ZM421.292 19.016C423.008 19.016 424.482 18.752 425.714 18.224C426.99 17.652 427.628 16.42 427.628 14.528C427.628 12.944 426.968 11.888 425.648 11.36C424.372 10.788 422.92 10.502 421.292 10.502H395.222V19.016H421.292Z" fill="currentColor"/>
<path d="M489.263 47V9.84201L463.127 47H444.845V0.800009H456.527V38.09L482.729 0.800009H500.945V47H489.263Z" fill="currentColor"/>
<path d="M3.3 78.8H18.744L33.99 115.938L49.236 78.8H64.746V125H53.064V97.082L42.174 125H25.872L14.982 96.95V125H3.3V78.8Z" fill="currentColor"/>
<path d="M73.6292 78.8H124.053V89.568H85.3112V97.676H117.453V106.124H85.3112V115.232H124.053V125H73.6292V78.8Z" fill="currentColor"/>
<path d="M132.495 78.8H145.035V97.676H176.847V78.8H189.387V125H176.847V106.124H145.035V125H132.495V78.8Z" fill="currentColor"/>
<path d="M199.635 78.8H250.059V89.568H211.317V97.676H243.459V106.124H211.317V115.232H250.059V125H199.635V78.8Z" fill="currentColor"/>
<path d="M253.881 117.146H260.547C262.263 110.502 263.121 103.704 263.121 96.752C263.121 90.152 262.285 84.146 260.613 78.734H311.433V117.146H317.835V138.2H305.559V125H266.091L266.157 138.2H253.881V117.146ZM299.157 117.146V88.588H275.001C275.397 92.724 275.595 94.2 275.595 97.016C275.595 104.012 274.671 110.722 272.823 117.146H299.157Z" fill="currentColor"/>
<path d="M366.068 110.48L322.112 125V113.912L356.95 102.164L322.112 90.152V78.8L366.068 93.518V73.8H378.08V93.518L422.036 78.8V90.152L387.198 102.164L422.036 113.912V125L378.08 110.48V125H366.068V110.48Z" fill="currentColor"/>
<path d="M428.121 78.8H478.545V89.568H439.803V97.676H471.945V106.124H439.803V115.232H478.545V125H428.121V78.8Z" fill="currentColor"/>
<path d="M486.987 78.734H527.049C530.129 78.734 532.923 79.416 535.431 80.78C537.939 82.1 539.897 83.838 541.305 85.994C542.757 88.106 543.483 90.284 543.483 92.528C543.483 94.64 542.757 96.818 541.305 99.062C539.897 101.262 537.939 103.11 535.431 104.606C532.923 106.058 530.129 106.784 527.049 106.784H498.669V124.934H486.987V78.734ZM524.739 97.016C526.455 97.016 527.929 96.752 529.161 96.224C530.437 95.652 531.075 94.42 531.075 92.528C531.075 90.944 530.415 89.888 529.095 89.36C527.819 88.788 526.367 88.502 524.739 88.502H498.669V97.016H524.739Z" fill="currentColor"/>
</svg>
