<svg width="121" height="121" viewBox="0 0 121 121" fill="none" xmlns="http://www.w3.org/2000/svg">
    <rect x="0.5" y="0.5" width="120" height="120" rx="60" stroke="#FFD31B"/>
    <path d="M17.16 68.5V54.5H28.2C28.96 54.5 29.66 54.6733 30.3 55.02C30.9533 55.3667 31.4667 55.84 31.84 56.44C32.2267 57.0267 32.42 57.6733 32.42 58.38C32.42 59.2867 32.1467 60.0733 31.6 60.74C32.0933 61.1667 32.48 61.6867 32.76 62.3C33.0533 62.9133 33.2 63.5667 33.2 64.26C33.2 65.0733 33.0067 65.8067 32.62 66.46C32.2467 67.1 31.7333 67.6067 31.08 67.98C30.44 68.34 29.74 68.52 28.98 68.52L17.16 68.5ZM28.58 65.98C29.1133 65.98 29.5933 65.8 30.02 65.44C30.4467 65.0667 30.66 64.5933 30.66 64.02C30.66 63.4733 30.4467 63.0467 30.02 62.74C29.6067 62.4333 29.1267 62.28 28.58 62.28H19.72V65.98H28.58ZM28.2 59.74C28.7067 59.74 29.1067 59.62 29.4 59.38C29.7067 59.1267 29.86 58.7933 29.86 58.38C29.86 57.9667 29.7067 57.64 29.4 57.4C29.1067 57.16 28.7067 57.04 28.2 57.04H19.72V59.74H28.2ZM35.1678 68.5V54.5H46.2078C46.9678 54.5 47.6678 54.6733 48.3078 55.02C48.9611 55.3667 49.4745 55.84 49.8478 56.44C50.2345 57.0267 50.4278 57.6733 50.4278 58.38C50.4278 59.2867 50.1545 60.0733 49.6078 60.74C50.1011 61.1667 50.4878 61.6867 50.7678 62.3C51.0611 62.9133 51.2078 63.5667 51.2078 64.26C51.2078 65.0733 51.0145 65.8067 50.6278 66.46C50.2545 67.1 49.7411 67.6067 49.0878 67.98C48.4478 68.34 47.7478 68.52 46.9878 68.52L35.1678 68.5ZM46.5878 65.98C47.1211 65.98 47.6011 65.8 48.0278 65.44C48.4545 65.0667 48.6678 64.5933 48.6678 64.02C48.6678 63.4733 48.4545 63.0467 48.0278 62.74C47.6145 62.4333 47.1345 62.28 46.5878 62.28H37.7278V65.98H46.5878ZM46.2078 59.74C46.7145 59.74 47.1145 59.62 47.4078 59.38C47.7145 59.1267 47.8678 58.7933 47.8678 58.38C47.8678 57.9667 47.7145 57.64 47.4078 57.4C47.1145 57.16 46.7145 57.04 46.2078 57.04H37.7278V59.74H46.2078ZM53.1756 54.5H67.5156V57.06H55.7756V60.3H65.5756V62.86H55.7756V65.94H67.5156V68.5H53.1756V54.5ZM70.2777 54.48H81.8177C82.6177 54.48 83.351 54.6733 84.0177 55.06C84.6977 55.4333 85.231 55.9333 85.6177 56.56C86.0043 57.1733 86.1977 57.82 86.1977 58.5C86.1977 59.1933 86.0043 59.8533 85.6177 60.48C85.231 61.1067 84.6977 61.6133 84.0177 62C83.351 62.3867 82.6177 62.58 81.8177 62.58H72.8777V68.48H70.2777V54.48ZM81.8177 60.02C82.3243 60.02 82.751 59.8933 83.0977 59.64C83.4577 59.3733 83.6377 58.9933 83.6377 58.5C83.6377 58.0067 83.4643 57.64 83.1177 57.4C82.771 57.16 82.3377 57.04 81.8177 57.04H72.8777V60.02H81.8177ZM93.9836 61.5L86.9836 54.5H90.2236L95.6036 59.88L100.984 54.5H104.224L97.2236 61.5L104.224 68.5H100.984L95.6036 63.12L90.2236 68.5H86.9836L93.9836 61.5Z" fill="#FFD31B"/>
</svg>
